<svg>
    <symbol xmlns="http://www.w3.org/2000/svg" viewBox="0 0 1024 1024" id="success"><path fill="currentColor" d="M512 64a448 448 0 1 1 0 896a448 448 0 0 1 0-896zm-55.808 536.384l-99.52-99.584a38.4 38.4 0 1 0-54.336 54.336l126.72 126.72a38.272 38.272 0 0 0 54.336 0l262.4-262.464a38.4 38.4 0 1 0-54.272-54.336L456.192 600.384z"/></symbol>
    <symbol xmlns="http://www.w3.org/2000/svg" viewBox="0 0 24 24" id="warning"><g fill="none"><path d="M24 0v24H0V0h24ZM12.593 23.258l-.011.002l-.071.035l-.02.004l-.014-.004l-.071-.035c-.01-.004-.019-.001-.024.005l-.004.01l-.017.428l.005.02l.01.013l.104.074l.015.004l.012-.004l.104-.074l.012-.016l.004-.017l-.017-.427c-.002-.01-.009-.017-.017-.018Zm.265-.113l-.013.002l-.185.093l-.01.01l-.003.011l.018.43l.005.012l.008.007l.201.093c.012.004.023 0 .029-.008l.004-.014l-.034-.614c-.003-.012-.01-.02-.02-.022Zm-.715.002a.023.023 0 0 0-.027.006l-.006.014l-.034.614c0 .012.007.02.017.024l.015-.002l.201-.093l.01-.008l.004-.011l.017-.43l-.003-.012l-.01-.01l-.184-.092Z"/><path fill="currentColor" d="M12 2c5.523 0 10 4.477 10 10s-4.477 10-10 10S2 17.523 2 12S6.477 2 12 2Zm0 13a1 1 0 1 0 0 2a1 1 0 0 0 0-2Zm0-9a1 1 0 0 0-.993.883L11 7v6a1 1 0 0 0 1.993.117L13 13V7a1 1 0 0 0-1-1Z"/></g></symbol>
    <symbol xmlns="http://www.w3.org/2000/svg" viewBox="0 0 20 20" id="danger"><g fill="currentColor" fill-rule="evenodd" clip-rule="evenodd"><path d="M10 4a6 6 0 1 0 0 12a6 6 0 0 0 0-12Zm-8 6a8 8 0 1 1 16 0a8 8 0 0 1-16 0Z"/><path d="M15.657 4.343a1 1 0 0 1 0 1.414l-9.9 9.9a1 1 0 0 1-1.414-1.414l9.9-9.9a1 1 0 0 1 1.414 0Z"/></g></symbol>
    <symbol xmlns="http://www.w3.org/2000/svg"  viewBox="0 0 24 24" id="received-mail"><path fill="currentColor" d="M2 20V4h12.1q-.1.5-.1 1t.1 1H4l8 5l3.65-2.275q.35.325.763.563t.862.412L12 13L4 8v10h16V9.9q.575-.125 1.075-.35T22 9v11H2ZM4 6v12V6Zm15 2q-1.25 0-2.125-.875T16 5q0-1.25.875-2.125T19 2q1.25 0 2.125.875T22 5q0 1.25-.875 2.125T19 8Z"/></symbol>
    <symbol xmlns="http://www.w3.org/2000/svg" viewBox="0 0 24 24" id="close-modal"><path fill="currentColor" d="M19 6.41L17.59 5L12 10.59L6.41 5L5 6.41L10.59 12L5 17.59L6.41 19L12 13.41L17.59 19L19 17.59L13.41 12L19 6.41Z"/></symbol>
    <symbol xmlns="http://www.w3.org/2000/svg" viewBox="0 0 24 24" id="file-document-tick-outline"><path fill="currentColor" d="m23.5 17l-5 5l-3.5-3.5l1.5-1.5l2 2l3.5-3.5l1.5 1.5M6 2a2 2 0 0 0-2 2v16c0 1.11.89 2 2 2h7.81c-.36-.62-.61-1.3-.73-2H6V4h7v5h5v4.08c.33-.05.67-.08 1-.08c.34 0 .67.03 1 .08V8l-6-6M8 12v2h8v-2m-8 4v2h5v-2Z"/></symbol>
    <symbol xmlns="http://www.w3.org/2000/svg" viewBox="0 0 20 20" id="info"><path fill="currentColor" d="M14.158 1.026a.5.5 0 0 1 .317.632l-.5 1.5a.5.5 0 0 1-.95-.316l.5-1.5a.5.5 0 0 1 .633-.316Zm3.697 1.828a.5.5 0 1 0-.708-.707l-2 2a.5.5 0 0 0 .707.707l2-2Zm-10.248.292a2 2 0 0 1 3.261-.515l6.587 6.98a2 2 0 0 1-.648 3.203L12.87 14.55A3.504 3.504 0 0 1 9.5 19a3.498 3.498 0 0 1-2.975-1.655l-1.2.529a1.5 1.5 0 0 1-1.661-.308l-1.222-1.21a1.5 1.5 0 0 1-.299-1.71l5.464-11.5Zm-.154 13.789a2.5 2.5 0 0 0 4.488-1.977l-4.488 1.977ZM17 6a.5.5 0 0 0 0 1h1.5a.5.5 0 1 0 0-1H17Z"/></symbol>
    <symbol xmlns="http://www.w3.org/2000/svg" viewBox="0 0 24 24" id="add-video"><path fill="currentColor" d="M16 4a1 1 0 0 1 1 1v4.2l5.213-3.65a.5.5 0 0 1 .787.41v12.08a.5.5 0 0 1-.787.41L17 14.8V19a1 1 0 0 1-1 1H2a1 1 0 0 1-1-1V5a1 1 0 0 1 1-1h14ZM8 8v3H5v2h2.999L8 16h2l-.001-3H13v-2h-3V8H8Z"/></symbol>
    <symbol xmlns="http://www.w3.org/2000/svg" viewBox="0 0 24 24" id="download"><g stroke="currentColor" stroke-linecap="round" stroke-linejoin="round" stroke-width="2"><path fill="none" stroke-dasharray="14" stroke-dashoffset="14" d="M6 19h12"><animate fill="freeze" attributeName="stroke-dashoffset" dur="0.4s" values="14;0"/></path><path fill="currentColor" d="M12 4 h2 v6 h2.5 L12 14.5M12 4 h-2 v6 h-2.5 L12 14.5"><animate attributeName="d" calcMode="linear" dur="1.5s" keyTimes="0;0.7;1" repeatCount="indefinite" values="M12 4 h2 v6 h2.5 L12 14.5M12 4 h-2 v6 h-2.5 L12 14.5;M12 4 h2 v3 h2.5 L12 11.5M12 4 h-2 v3 h-2.5 L12 11.5;M12 4 h2 v6 h2.5 L12 14.5M12 4 h-2 v6 h-2.5 L12 14.5"/></path></g></symbol>
    <symbol xmlns="http://www.w3.org/2000/svg" viewBox="0 0 512 512" id="add"><path fill="none" stroke="currentColor" stroke-linecap="round" stroke-linejoin="round" stroke-width="32" d="M256 112v288m144-144H112"/></g></symbol>
    <symbol xmlns="http://www.w3.org/2000/svg" viewBox="0 0 20 20" id="circle"><path fill="currentColor" d="M16.5 10a6.5 6.5 0 1 1-13 0a6.5 6.5 0 0 1 13 0Z"/></symbol>
    <symbol xmlns="http://www.w3.org/2000/svg" viewBox="0 0 21 21" id="date"><g fill="none" fill-rule="evenodd"><path stroke="currentColor" stroke-linecap="round" stroke-linejoin="round" d="M4.5 2.5h12a2 2 0 0 1 2 2v11.99a2 2 0 0 1-2 2h-12a2 2 0 0 1-2-2V4.5a2 2 0 0 1 2-2zm-1.841 4H18.5"/><path fill="currentColor" d="M6.816 13.155v-1.079h.88c.668 0 1.122-.395 1.122-.972c0-.527-.415-.927-1.103-.927c-.713 0-1.152.366-1.201.996H5.15C5.201 9.874 6.201 9 7.788 9c1.563 0 2.432.864 2.427 1.895c-.005.854-.542 1.416-1.299 1.601v.093c.981.141 1.577.766 1.577 1.709c0 1.235-1.162 2.11-2.754 2.11S5.063 15.537 5 14.204h1.411c.044.596.552.977 1.309.977c.747 0 1.27-.406 1.27-1.016c0-.625-.489-1.01-1.28-1.01zm6.7 3.072v-5.611h-.087L11.7 11.808v-1.372l1.821-1.255h1.47v7.046z"/></g></symbol>
    <symbol xmlns="http://www.w3.org/2000/svg" viewBox="0 0 48 48" id="personne"><g fill="none" stroke="currentColor" stroke-width="4"><path stroke-linecap="round" d="M32.485 24.485A11.962 11.962 0 0 0 36 16c0-6.627-5.373-12-12-12S12 9.373 12 16c0 3.314 1.343 6.314 3.515 8.485"/><path stroke-linecap="round" stroke-linejoin="round" d="m6 44l1-5l11-8l6 6l6-6l11 8l1 5"/><path d="M12.993 21.007c.013-4.11.682-7.113 2.007-9.007c1.988-2.841 3.387-2.632 4.405-2.19c1.019.443 1.618 3.334 3.319 4.168c1.7.833 6.054.936 7.545 1.939c1.49 1.002 4.9 2.867 4.05 6.051"/></g></symbol>
</svg>